<svg width="101" height="20" viewBox="0 0 101 20" fill="none" xmlns="http://www.w3.org/2000/svg">
<path d="M0.831482 19.0385V6.21817H3.72601V19.0385H0.831482ZM2.27289 4.09708C1.96039 4.09708 1.67133 4.01895 1.4057 3.8627C1.14008 3.70645 0.929138 3.49942 0.772888 3.24161C0.616638 2.97598 0.538513 2.67911 0.538513 2.35098C0.538513 2.02286 0.616638 1.72598 0.772888 1.46036C0.929138 1.19473 1.14008 0.983795 1.4057 0.827545C1.67133 0.671295 1.96039 0.59317 2.27289 0.59317C2.5932 0.59317 2.88226 0.671295 3.14008 0.827545C3.4057 0.983795 3.61664 1.19473 3.77289 1.46036C3.92914 1.72598 4.00726 2.02286 4.00726 2.35098C4.00726 2.67911 3.92914 2.97598 3.77289 3.24161C3.61664 3.49942 3.4057 3.70645 3.14008 3.8627C2.88226 4.01895 2.5932 4.09708 2.27289 4.09708ZM8.33539 19.0385V6.21817H11.1362V8.26895H11.3354C11.6401 7.55801 12.1127 6.99551 12.7534 6.58145C13.394 6.16739 14.1909 5.96036 15.144 5.96036C16.5737 5.96036 17.6674 6.37442 18.4252 7.20255C19.183 8.03067 19.562 9.21036 19.562 10.7416V19.0385H16.6557V11.433C16.6557 10.4565 16.4448 9.72208 16.0229 9.22989C15.601 8.7377 14.9487 8.49161 14.0659 8.49161C13.4877 8.49161 12.9877 8.61661 12.5659 8.86661C12.144 9.11661 11.8159 9.47208 11.5815 9.93301C11.3549 10.394 11.2416 10.9408 11.2416 11.5736V19.0385H8.33539Z" fill="#565656"/>
<path d="M31.1557 19.0385H27.6752L21.769 2.12833H25.1088L29.3627 15.5111H29.562L33.7807 2.12833H37.0034L31.1557 19.0385ZM44.812 19.2963C43.5307 19.2963 42.4291 19.0307 41.5073 18.4994C40.5854 17.9604 39.8784 17.1947 39.3862 16.2025C38.894 15.2025 38.6479 14.0111 38.6479 12.6283C38.6479 11.2455 38.8979 10.058 39.3979 9.06583C39.8979 8.06583 40.6049 7.3002 41.519 6.76895C42.4409 6.22989 43.5385 5.96036 44.812 5.96036C46.0854 5.96036 47.183 6.22989 48.1049 6.76895C49.0268 7.3002 49.7338 8.06583 50.226 9.06583C50.726 10.058 50.976 11.2455 50.976 12.6283C50.976 14.0111 50.726 15.2025 50.226 16.2025C49.7338 17.1947 49.0268 17.9604 48.1049 18.4994C47.1909 19.0307 46.0932 19.2963 44.812 19.2963ZM44.812 16.8588C45.8276 16.8588 46.6088 16.4916 47.1557 15.7572C47.7104 15.015 47.9877 13.9721 47.9877 12.6283C47.9877 11.2924 47.7104 10.2533 47.1557 9.51114C46.601 8.76895 45.8198 8.39786 44.812 8.39786C43.7963 8.39786 43.0112 8.76895 42.4565 9.51114C41.9018 10.2533 41.6245 11.2924 41.6245 12.6283C41.6245 13.9721 41.9018 15.015 42.4565 15.7572C43.0112 16.4916 43.7963 16.8588 44.812 16.8588ZM54.9409 19.0385V6.21817H57.8354V19.0385H54.9409ZM56.3823 4.09708C56.0698 4.09708 55.7807 4.01895 55.5151 3.8627C55.2495 3.70645 55.0385 3.49942 54.8823 3.24161C54.726 2.97598 54.6479 2.67911 54.6479 2.35098C54.6479 2.02286 54.726 1.72598 54.8823 1.46036C55.0385 1.19473 55.2495 0.983795 55.5151 0.827545C55.7807 0.671295 56.0698 0.59317 56.3823 0.59317C56.7026 0.59317 56.9916 0.671295 57.2495 0.827545C57.5151 0.983795 57.726 1.19473 57.8823 1.46036C58.0385 1.72598 58.1166 2.02286 58.1166 2.35098C58.1166 2.67911 58.0385 2.97598 57.8823 3.24161C57.726 3.49942 57.5151 3.70645 57.2495 3.8627C56.9916 4.01895 56.7026 4.09708 56.3823 4.09708ZM73.519 10.5307H70.7534C70.6205 9.90567 70.3159 9.39395 69.8393 8.99551C69.3627 8.59708 68.726 8.39786 67.9291 8.39786C66.9291 8.39786 66.1479 8.76505 65.5854 9.49942C65.0307 10.2338 64.7534 11.265 64.7534 12.5932C64.7534 13.9369 65.0346 14.9838 65.5971 15.7338C66.1596 16.4838 66.937 16.8588 67.9291 16.8588C68.687 16.8588 69.308 16.683 69.7924 16.3315C70.2846 15.9799 70.6049 15.4721 70.7534 14.808H73.519C73.4174 15.6986 73.1284 16.4838 72.6518 17.1635C72.183 17.8354 71.5502 18.3588 70.7534 18.7338C69.9643 19.1088 69.0268 19.2963 67.9409 19.2963C66.6518 19.2963 65.5502 19.0307 64.6362 18.4994C63.7221 17.9682 63.0229 17.2025 62.5385 16.2025C62.0541 15.2025 61.812 13.9994 61.812 12.5932C61.812 11.2025 62.0541 10.015 62.5385 9.03067C63.0229 8.03848 63.7221 7.28067 64.6362 6.75723C65.5502 6.22598 66.6479 5.96036 67.9291 5.96036C69.0229 5.96036 69.9682 6.15567 70.7651 6.5463C71.5698 6.92911 72.2026 7.46426 72.6635 8.15176C73.1323 8.83926 73.4174 9.63223 73.519 10.5307ZM82.6752 8.26895C82.0971 8.26895 81.5815 8.39786 81.1284 8.65567C80.683 8.91348 80.3276 9.27676 80.062 9.74551C79.7963 10.2143 79.6401 10.7611 79.5932 11.3861H85.6284C85.6049 10.7533 85.4682 10.2025 85.2182 9.7338C84.976 9.26505 84.6362 8.90567 84.1987 8.65567C83.769 8.39786 83.2612 8.26895 82.6752 8.26895ZM85.6518 15.5111H88.4057C88.2338 16.2846 87.8901 16.9565 87.3745 17.5268C86.8588 18.0893 86.2026 18.5268 85.4057 18.8393C84.6166 19.144 83.7182 19.2963 82.7104 19.2963C81.4526 19.2963 80.3705 19.0307 79.4643 18.4994C78.5659 17.9682 77.8745 17.2104 77.3901 16.226C76.9057 15.2338 76.6635 14.0502 76.6635 12.6752C76.6635 11.3002 76.9057 10.1127 77.3901 9.1127C77.8823 8.10489 78.5776 7.32755 79.476 6.78067C80.3823 6.2338 81.4526 5.96036 82.687 5.96036C83.9057 5.96036 84.9487 6.21817 85.8159 6.7338C86.6909 7.24942 87.3627 7.99161 87.8315 8.96036C88.3002 9.92911 88.5346 11.0854 88.5346 12.4291V13.3666H79.5815V13.519C79.6049 14.2299 79.7495 14.8471 80.0151 15.3705C80.2885 15.8861 80.6596 16.2846 81.1284 16.5658C81.6049 16.8471 82.1596 16.9877 82.7924 16.9877C83.5112 16.9877 84.1127 16.8627 84.5971 16.6127C85.0893 16.3549 85.4409 15.9877 85.6518 15.5111ZM92.4526 19.0385V6.21817H95.2534V8.21036H95.4526C95.5698 7.78848 95.7885 7.41348 96.1088 7.08536C96.437 6.74942 96.8354 6.4877 97.3041 6.3002C97.7729 6.10489 98.2846 6.00723 98.8393 6.00723C99.0502 6.00723 99.269 6.01895 99.4955 6.04239C99.7299 6.06583 99.9135 6.09708 100.046 6.13614V8.83145C99.9682 8.80801 99.8432 8.78458 99.6713 8.76114C99.4995 8.72989 99.312 8.70645 99.1088 8.69083C98.9057 8.6752 98.7221 8.66739 98.558 8.66739C97.9252 8.66739 97.3666 8.79239 96.8823 9.04239C96.4057 9.28458 96.0307 9.62833 95.7573 10.0736C95.4916 10.519 95.3588 11.0385 95.3588 11.6322V19.0385H92.4526Z" fill="#C8B400"/>
</svg>
