<svg width="181" height="180" viewBox="0 0 181 180" fill="none" xmlns="http://www.w3.org/2000/svg">
<circle cx="90.7036" cy="90" r="90" fill="url(#paint0_linear_17_163)"/>
<path d="M115.88 98.7509C121.314 98.7509 125.718 103.156 125.718 108.59V111.107C125.718 115.02 124.32 118.803 121.776 121.776C114.91 129.797 104.466 133.756 90.7053 133.756C76.942 133.756 66.5032 129.796 59.6507 121.771C57.1142 118.801 55.7207 115.023 55.7207 111.117V108.59C55.7207 103.156 60.1257 98.7509 65.5595 98.7509H115.88ZM115.88 105.313H65.5595C63.7501 105.313 62.2832 106.78 62.2832 108.59V111.117C62.2832 113.461 63.1193 115.727 64.6412 117.509C70.1244 123.93 78.7251 127.193 90.7053 127.193C102.685 127.193 111.294 123.93 116.79 117.508C118.317 115.725 119.156 113.454 119.156 111.107V108.59C119.156 106.78 117.689 105.313 115.88 105.313ZM90.7053 46.2714C102.786 46.2714 112.58 56.0651 112.58 68.1464C112.58 80.2276 102.786 90.0215 90.7053 90.0215C78.624 90.0215 68.8302 80.2276 68.8302 68.1464C68.8302 56.0651 78.624 46.2714 90.7053 46.2714ZM90.7053 52.8339C82.2485 52.8339 75.3927 59.6895 75.3927 68.1464C75.3927 76.6032 82.2485 83.459 90.7053 83.459C99.1622 83.459 106.018 76.6032 106.018 68.1464C106.018 59.6895 99.1622 52.8339 90.7053 52.8339Z" fill="#B7BABA"/>
<defs>
<linearGradient id="paint0_linear_17_163" x1="226.746" y1="267.612" x2="236.225" y2="-98.9995" gradientUnits="userSpaceOnUse">
<stop offset="0.00899963" stop-color="#565656"/>
<stop offset="0.0839996" stop-color="#B7BABA"/>
<stop offset="0.539" stop-color="#00221E"/>
<stop offset="0.759" stop-color="#FFE81D"/>
</linearGradient>
</defs>
</svg>

