<svg width="25" height="28" viewBox="0 0 25 28" fill="none" xmlns="http://www.w3.org/2000/svg">
<path d="M10.5625 25.0625H19.9062C20.5793 25.0625 21.125 25.6082 21.125 26.2813C21.125 26.9544 20.5793 27.5 19.9062 27.5H10.5625C4.72899 27.5 0 22.7711 0 16.9375C0 11.104 4.72899 6.37503 10.5625 6.37503H20.2317L15.9796 2.12278C15.5036 1.64682 15.5036 0.875154 15.9796 0.399208C16.4554 -0.0767543 17.2271 -0.0767543 17.7031 0.399208L24.0118 6.70799C24.1738 6.86991 24.2806 7.06605 24.3324 7.27312C24.3602 7.37528 24.375 7.48281 24.375 7.59378C24.375 7.93978 24.2309 8.25208 23.9993 8.47393L17.6941 14.779C17.2182 15.255 16.4466 15.255 15.9707 14.779C15.4947 14.3031 15.4947 13.5314 15.9707 13.0554L20.2135 8.81253H10.5625C6.07519 8.81253 2.4375 12.4503 2.4375 16.9375C2.4375 21.4248 6.07519 25.0625 10.5625 25.0625Z" fill="white"/>
</svg>
