<svg width="32" height="32" viewBox="0 0 32 32" fill="none" xmlns="http://www.w3.org/2000/svg">
<rect x="1" y="1.00012" width="30" height="30" rx="5" fill="#B7BABA" stroke="white" stroke-width="2"/>
<path d="M24.3333 8.50012H7.66667C6.75833 8.53346 6.03333 9.25846 6 10.1668V21.8335C6.03333 22.7418 6.75833 23.4668 7.66667 23.5001H24.3333C25.2417 23.4668 25.9667 22.7418 26 21.8335V10.1668C25.9847 9.72964 25.8041 9.31457 25.4948 9.00528C25.1855 8.69598 24.7705 8.51546 24.3333 8.50012ZM24.3333 21.8335H7.66667V10.1668H24.3333V21.8335ZM17.6667 20.1668V19.1251C17.6667 17.7418 14.8833 17.0418 13.5 17.0418C12.1167 17.0418 9.33333 17.7418 9.33333 19.1251V20.1668H17.6667ZM13.5 11.8335C12.9475 11.8335 12.4176 12.0529 12.0269 12.4436C11.6362 12.8344 11.4167 13.3643 11.4167 13.9168C11.4167 14.1904 11.4706 14.4613 11.5753 14.714C11.6799 14.9668 11.8334 15.1965 12.0269 15.3899C12.4176 15.7806 12.9475 16.0001 13.5 16.0001C13.7736 16.0001 14.0445 15.9462 14.2973 15.8415C14.55 15.7368 14.7797 15.5834 14.9731 15.3899C15.1666 15.1965 15.3201 14.9668 15.4247 14.714C15.5294 14.4613 15.5833 14.1904 15.5833 13.9168C15.5833 13.6432 15.5294 13.3723 15.4247 13.1195C15.3201 12.8668 15.1666 12.6371 14.9731 12.4436C14.7797 12.2502 14.55 12.0967 14.2973 11.992C14.0445 11.8873 13.7736 11.8335 13.5 11.8335ZM17.6667 11.8335V12.6668H22.6667V11.8335H17.6667ZM17.6667 13.5001V14.3335H22.6667V13.5001H17.6667ZM17.6667 15.1668V16.0001H21V15.1668H17.6667Z" fill="#333333"/>
</svg>
