<svg width="33" height="32" viewBox="0 0 33 32" fill="none" xmlns="http://www.w3.org/2000/svg">
<rect x="1.5" y="1.41534" width="30" height="30" rx="5" fill="#B7BABA" stroke="white" stroke-width="2"/>
<path d="M19.2907 26.9154H13.7093C8.65814 26.9154 6.5 24.7573 6.5 19.7062V14.125C6.5 9.07392 8.65814 6.91583 13.7093 6.91583H18.3605C18.7419 6.91583 19.0581 7.2321 19.0581 7.61349C19.0581 7.99488 18.7419 8.31115 18.3605 8.31115H13.7093C9.42093 8.31115 7.89535 9.8367 7.89535 14.125V19.7062C7.89535 23.9945 9.42093 25.5201 13.7093 25.5201H19.2907C23.5791 25.5201 25.1047 23.9945 25.1047 19.7062V15.0552C25.1047 14.6738 25.4209 14.3575 25.8023 14.3575C26.1837 14.3575 26.5 14.6738 26.5 15.0552V19.7062C26.5 24.7573 24.3419 26.9154 19.2907 26.9154Z" fill="#333333"/>
<path d="M25.8024 15.751H22.0814C18.9001 15.751 17.6628 14.5138 17.6628 11.3325V7.61163C17.6628 7.33257 17.8303 7.07211 18.0907 6.96978C18.3512 6.85816 18.6489 6.92327 18.8535 7.11862L26.2954 14.5603C26.3924 14.658 26.4583 14.7823 26.485 14.9174C26.5116 15.0525 26.4977 15.1924 26.445 15.3197C26.3923 15.4469 26.3032 15.5557 26.1889 15.6324C26.0745 15.7092 25.9401 15.7504 25.8024 15.751ZM19.0582 9.29531V11.3325C19.0582 13.7324 19.6814 14.3557 22.0814 14.3557H24.1187L19.0582 9.29531Z" fill="#333333"/>
</svg>
