<svg width="33" height="32" viewBox="0 0 33 32" fill="none" xmlns="http://www.w3.org/2000/svg">
<rect x="1.5" y="1.41534" width="30" height="30" rx="5" fill="#B7BABA" stroke="white" stroke-width="2"/>
<path d="M6.83521 8.60867C6.83521 7.19399 7.98203 6.04716 9.39671 6.04716H20.2119C21.6266 6.04716 22.7734 7.19399 22.7734 8.60867V18.5701H27.3272V22.8392C27.3272 24.8826 25.6707 26.5392 23.6273 26.5392H10.5352C8.49172 26.5392 6.83521 24.8826 6.83521 22.8392V8.60867ZM22.7734 24.8315H23.6273C24.7276 24.8315 25.6195 23.9395 25.6195 22.8392V20.2777H22.7734V24.8315ZM9.39671 7.75483C8.92515 7.75483 8.54287 8.13711 8.54287 8.60867V22.8392C8.54287 23.9395 9.43484 24.8315 10.5352 24.8315H21.0658V8.60867C21.0658 8.13711 20.6835 7.75483 20.2119 7.75483H9.39671ZM11.6736 10.6009C11.202 10.6009 10.8198 10.9832 10.8198 11.4548C10.8198 11.9263 11.202 12.3086 11.6736 12.3086H17.935C18.4066 12.3086 18.7889 11.9263 18.7889 11.4548C18.7889 10.9832 18.4066 10.6009 17.935 10.6009H11.6736ZM10.8198 16.0086C10.8198 15.537 11.202 15.1547 11.6736 15.1547H17.935C18.4066 15.1547 18.7889 15.537 18.7889 16.0086C18.7889 16.4801 18.4066 16.8624 17.935 16.8624H11.6736C11.202 16.8624 10.8198 16.4801 10.8198 16.0086ZM11.6736 19.7085C11.202 19.7085 10.8198 20.0908 10.8198 20.5623C10.8198 21.0339 11.202 21.4162 11.6736 21.4162H15.0889C15.5605 21.4162 15.9428 21.0339 15.9428 20.5623C15.9428 20.0908 15.5605 19.7085 15.0889 19.7085H11.6736Z" fill="#333333"/>
</svg>
