<svg width="33" height="32" viewBox="0 0 33 32" fill="none" xmlns="http://www.w3.org/2000/svg">
<rect x="1.5" y="1.41534" width="30" height="30" rx="5" fill="#B7BABA" stroke="white" stroke-width="2"/>
<path d="M20.8516 18.901C20.371 18.901 19.9813 19.2907 19.9813 19.7714C19.9813 20.252 20.371 20.6417 20.8516 20.6417H23.7526C24.2333 20.6417 24.623 20.252 24.623 19.7714C24.623 19.2907 24.2333 18.901 23.7526 18.901H20.8516ZM4.89587 11.6484C4.89587 9.56557 6.58436 7.87708 8.66723 7.87708H24.3329C26.4157 7.87708 28.1042 9.56557 28.1042 11.6484V20.3516C28.1042 22.4344 26.4157 24.1229 24.3329 24.1229H8.66723C6.58436 24.1229 4.89587 22.4344 4.89587 20.3516V11.6484ZM26.3636 13.099V11.6484C26.3636 10.5269 25.4544 9.61771 24.3329 9.61771H8.66723C7.54569 9.61771 6.6365 10.5269 6.6365 11.6484V13.099H26.3636ZM6.6365 14.8396V20.3516C6.6365 21.4731 7.54569 22.3823 8.66723 22.3823H24.3329C25.4544 22.3823 26.3636 21.4731 26.3636 20.3516V14.8396H6.6365Z" fill="#333333"/>
</svg>
