<svg width="33" height="32" viewBox="0 0 33 32" fill="none" xmlns="http://www.w3.org/2000/svg">
<rect x="1.5" y="1.41534" width="30" height="30" rx="5" fill="#B7BABA" stroke="white" stroke-width="2"/>
<path d="M14.9375 6.87214C15.8411 6.50584 16.8517 6.50584 17.7553 6.87214L25.2539 9.91211C25.9143 10.1798 26.3464 10.8213 26.3464 11.5339V21.1866C26.3464 21.8992 25.9143 22.5406 25.2539 22.8084L17.7553 25.8483C16.8517 26.2146 15.8411 26.2146 14.9375 25.8483L7.43896 22.8084C6.77855 22.5406 6.34644 21.8992 6.34644 21.1866V11.5339C6.34644 10.8213 6.77855 10.1798 7.43896 9.91211L14.9375 6.87214ZM17.1917 8.26225C16.6496 8.04247 16.0432 8.04247 15.5011 8.26225L13.5874 9.03807L21.1142 11.9652L23.7834 10.9345L17.1917 8.26225ZM19.0375 12.767L11.5612 9.85952L8.93673 10.9235L16.3477 13.8055L19.0375 12.767ZM7.84644 21.1866C7.84644 21.2884 7.90817 21.38 8.00251 21.4183L15.5011 24.4582C15.5327 24.4711 15.5647 24.4832 15.5967 24.4945V15.1229L7.84644 12.1089V21.1866ZM17.1917 24.4582L24.6903 21.4183C24.7847 21.38 24.8464 21.2884 24.8464 21.1866V12.132L17.0967 15.1242V24.4943C17.1286 24.483 17.1603 24.471 17.1917 24.4582Z" fill="#333333"/>
</svg>
