<svg width="23" height="19" viewBox="0 0 23 19" fill="none" xmlns="http://www.w3.org/2000/svg">
<path d="M4.47783 0.641434H19.3944C21.3092 0.641434 22.874 2.14021 22.9797 4.02868L22.9854 4.23245V14.7293C22.9854 16.6441 21.4865 18.2089 19.5981 18.3147L19.3944 18.3203H4.47783C2.56295 18.3203 0.998132 16.8215 0.89249 14.933L0.88681 14.7293V4.23245C0.88681 2.31758 2.38559 0.752755 4.27406 0.647113L4.47783 0.641434ZM21.328 6.57822L12.322 11.3191C12.115 11.4281 11.8732 11.4437 11.6563 11.3659L11.5501 11.3191L2.5442 6.57932V14.7293C2.5442 15.7438 3.32551 16.5758 4.31924 16.6565L4.47783 16.6629H19.3944C20.4089 16.6629 21.2409 15.8816 21.3216 14.8878L21.328 14.7293V6.57822ZM19.3944 2.29883H4.47783C3.46332 2.29883 2.63128 3.08013 2.55061 4.07386L2.5442 4.23245V4.70647L11.9361 9.64936L21.328 4.70536V4.23245C21.328 3.21794 20.5467 2.38591 19.5529 2.30523L19.3944 2.29883Z" fill="#565656"/>
</svg>
