<svg width="22" height="17" viewBox="0 0 26 18" fill="none" xmlns="http://www.w3.org/2000/svg">
<path d="M12.6676 7.01624C12.3098 6.65865 11.7299 6.65879 11.3722 7.0166C11.0145 7.37446 11.0147 7.95435 11.3725 8.31208L12.2515 9.19059L11.3724 10.0698C11.0147 10.4276 11.0147 11.0075 11.3724 11.3652C11.7301 11.7229 12.31 11.7229 12.6678 11.3652L13.5472 10.4857L14.4259 11.364C14.7837 11.7216 15.3636 11.7215 15.7214 11.3636C16.079 11.0059 16.0788 10.4259 15.721 10.0683L14.8427 9.19035L15.7211 8.31184C16.0788 7.95411 16.0788 7.37421 15.7211 7.01648C15.3634 6.65873 14.7835 6.65873 14.4258 7.01648L13.547 7.89524L12.6676 7.01624ZM4.65482 7.0166C5.01246 6.65879 5.59244 6.65865 5.95025 7.01624L6.82958 7.89524L7.70833 7.01648C8.06605 6.65873 8.64603 6.65873 9.00376 7.01648C9.36148 7.37421 9.36148 7.95411 9.00376 8.31184L8.12531 9.19035L9.00361 10.0683C9.36142 10.4259 9.36156 11.0059 9.00392 11.3636C8.64628 11.7215 8.0663 11.7216 7.70849 11.364L6.82988 10.4857L5.95041 11.3652C5.59269 11.7229 5.0127 11.7229 4.65498 11.3652C4.29726 11.0075 4.29726 10.4276 4.65498 10.0698L5.53415 9.19059L4.65512 8.31208C4.29732 7.95435 4.29719 7.37446 4.65482 7.0166ZM18.4321 11.0229C17.9262 11.0229 17.5161 11.433 17.5161 11.9389C17.5161 12.4447 17.9262 12.8549 18.4321 12.8549H20.5695C21.0754 12.8549 21.4855 12.4447 21.4855 11.9389C21.4855 11.433 21.0754 11.0229 20.5695 11.0229H18.4321ZM4.69108 0.641438C2.49849 0.641438 0.722656 2.41896 0.722656 4.6108V13.7709C0.722656 15.9631 2.4998 17.7402 4.69202 17.7402H21.1802C23.3723 17.7402 25.1495 15.9631 25.1495 13.7709V4.6108C25.1495 2.41896 23.3737 0.641438 21.1811 0.641438H4.69108ZM2.55467 4.6108C2.55467 3.43001 3.51102 2.47345 4.69108 2.47345H21.1811C22.3612 2.47345 23.3175 3.43001 23.3175 4.6108V13.7709C23.3175 14.9513 22.3606 15.9082 21.1802 15.9082H4.69202C3.51159 15.9082 2.55467 14.9513 2.55467 13.7709V4.6108Z" fill="#666666"/>
</svg>
